<svg width="24" height="24" viewBox="0 0 24 24" fill="none" stroke="currentColor" strokeWidth="2" strokeLinecap="round" strokeLinejoin="round" className="text-indigo-600"><path d="M14 9V5a2 2 0 0 0-2-2H4a2 2 0 0 0-2 2v14a2 2 0 0 0 2 2h8a2 2 0 0 0 2-2v-4"></path><path d="M22 9V5a2 2 0 0 0-2-2H10a2 2 0 0 0-2 2v14a2 2 0 0 0 2 2h8a2 2 0 0 0 2-2v-4"></path><line x1="8" y1="6" x2="8" y2="6"></line><line x1="16" y1="6" x2="16" y2="6"></line><line x1="8" y1="18" x2="8" y2="18"></line><line x1="16" y1="18" x2="16" y2="18"></line><path d="M10 12h4"></path><path d="M12 10v4"></path></svg>